<svg id="Calque_1" data-name="Calque 1" xmlns="http://www.w3.org/2000/svg" viewBox="0 0 275.42278 251.18882"><defs><style>.cls-1{fill:#a0d3c7;}.cls-2{fill:#56a8bb;}</style></defs><path class="cls-1" d="M226.43033,51.40062q-68.87755,14.273-137.75519,28.54579c-2.40585,1.23936-10.47311-1.979-10.59835-6.96132-6.1894-17.74443,2.01285-38.38829,21.50993-42.232L244.54581.71412a8.96639,8.96639,0,0,1,10.59924,6.96054A36.98982,36.98982,0,0,1,226.43033,51.40062Z" transform="translate(-0.28861 -0.5258)"/><path class="cls-1" d="M93.8832,211.92581a17.43157,17.43157,0,0,1-17.4316-17.43158V50.20477c.3814-22.878,34.47043-22.94023,34.86313.00076q0,72.14359,0,144.2887C111.31476,195.65518,111.19878,201.83059,93.8832,211.92581Z" transform="translate(-0.28861 -0.5258)"/><path class="cls-1" d="M245.54108,179.97787a17.43154,17.43154,0,0,1-17.43158-17.43155V50.85162c1.39264-12.76045-4.07247-35.9127,5.10422-44.92089,10.17338-10.8942,30.29373-2.87364,29.7585,12.32682l.00044,144.28877A17.43155,17.43155,0,0,1,245.54108,179.97787Z" transform="translate(-0.28861 -0.5258)"/><path class="cls-1" d="M111.31476,200.52564C111.30871,252.54518.28289,252.539.28861,200.52257.2945,148.5061,111.32031,148.51233,111.31476,200.52564Z" transform="translate(-0.28861 -0.5258)"/><path class="cls-1" d="M263.53434,163.31527c-.006,52.01954-111.03187,52.01331-111.02615-.00307C152.51407,111.29573,263.53989,111.302,263.53434,163.31527Z" transform="translate(-0.28861 -0.5258)"/><path class="cls-1" d="M212.24634,79.29422" transform="translate(-0.28861 -0.5258)"/><path class="cls-1" d="M228.1095,66.15738" transform="translate(-0.28861 -0.5258)"/><path class="cls-1" d="M120.03581,62.11527" transform="translate(-0.28861 -0.5258)"/><path class="cls-1" d="M112.31476,63.86264c12.76315-.50527,17.37043,7.58567,17.37043,7.58567-11.70555-2.00591-21.3645,9.45154-18.37043,18.95327l-8.97368-7.08631Z" transform="translate(-0.28861 -0.5258)"/><polygon class="cls-1" points="227.821 50.326 217.449 52.676 224.589 38.6 239.242 50.221 227.821 65.632 227.821 50.326"/><path class="cls-1" d="M228.17071,45.94273c-12.76315-.50526-17.37043,7.58568-17.37043,7.58568,10.31288-2.80859,21.47124,7.91773,18.37044,18.95326l8.97367-7.08631Z" transform="translate(-0.28861 -0.5258)"/><path class="cls-1" d="M228.16991,53.14019C182.25153,62.65554,134.624,66.04708,90.41472,81.686c-2.55138.90254-9.70427-2.05831-10.59836-6.96132-3.37137-18.488,2.01286-38.38829,21.50994-42.232L246.28539,2.4537a8.96639,8.96639,0,0,1,10.59924,6.96054A36.9898,36.9898,0,0,1,228.16991,53.14019Z" transform="translate(-0.28861 -0.5258)"/><path class="cls-1" d="M95.62277,213.66539a17.43158,17.43158,0,0,1-17.43159-17.43158V51.94435c.3814-22.878,34.66676-22.94276,34.86313.00076.41162,48.094,0,96.19222,0,144.2887C113.05434,197.39476,112.93836,203.57017,95.62277,213.66539Z" transform="translate(-0.28861 -0.5258)"/><path class="cls-1" d="M247.28066,181.71745a17.43154,17.43154,0,0,1-17.43158-17.43155c0-37.23157-2.02267-74.51812,0-111.6947.69735-12.81726-3.87454-35.71541,5.10421-44.92089C245.361-3.00023,265.247,4.79667,264.7118,19.99713l.00044,144.28877A17.43156,17.43156,0,0,1,247.28066,181.71745Z" transform="translate(-0.28861 -0.5258)"/><path class="cls-1" d="M113.05434,202.26522c-.00605,52.01954-111.03187,52.01331-111.02615-.00308C2.03407,150.24568,113.05989,150.25191,113.05434,202.26522Z" transform="translate(-0.28861 -0.5258)"/><path class="cls-1" d="M265.27392,165.05485c-.00606,52.01954-111.03187,52.01331-111.02615-.00308C154.25365,113.03531,265.27947,113.04154,265.27392,165.05485Z" transform="translate(-0.28861 -0.5258)"/><path class="cls-1" d="M213.98592,81.03379" transform="translate(-0.28861 -0.5258)"/><path class="cls-1" d="M229.84908,67.897" transform="translate(-0.28861 -0.5258)"/><path class="cls-1" d="M121.77539,63.85485" transform="translate(-0.28861 -0.5258)"/><path class="cls-1" d="M114.05434,65.60221c12.76315-.50526,17.37043,7.58568,17.37043,7.58568-11.70555-2.00591-21.3645,9.45153-18.37043,18.95327l-8.97368-7.08631Z" transform="translate(-0.28861 -0.5258)"/><polygon class="cls-1" points="229.56 52.065 219.188 54.416 226.329 40.34 240.982 51.961 229.56 67.371 229.56 52.065"/><path class="cls-1" d="M229.91029,47.68231C217.14714,47.177,212.53986,55.268,212.53986,55.268c10.31288-2.80859,21.47124,7.91772,18.37044,18.95326l8.97367-7.08631Z" transform="translate(-0.28861 -0.5258)"/><path class="cls-1" d="M229.90949,54.87977C183.99111,64.39512,136.36362,67.78666,92.1543,83.42556c-2.55138.90255-9.70427-2.0583-10.59836-6.96131-3.37137-18.488,2.01286-38.38829,21.50994-42.232L248.025,4.19328a8.96638,8.96638,0,0,1,10.59924,6.96054A36.98982,36.98982,0,0,1,229.90949,54.87977Z" transform="translate(-0.28861 -0.5258)"/><path class="cls-1" d="M97.36235,215.405a17.43157,17.43157,0,0,1-17.43159-17.43158V53.68393c.3814-22.878,34.66676-22.94276,34.86313.00076.41162,48.094,0,96.19222,0,144.28869C114.79392,199.13433,114.67794,205.30975,97.36235,215.405Z" transform="translate(-0.28861 -0.5258)"/><path class="cls-1" d="M249.02024,183.457a17.43155,17.43155,0,0,1-17.43158-17.43155c0-37.23157-2.02267-74.51812,0-111.6947.69735-12.81727-3.87455-35.71541,5.10421-44.92089,10.40773-10.67054,30.29374-2.87364,29.75851,12.32682l.00044,144.28877A17.43156,17.43156,0,0,1,249.02024,183.457Z" transform="translate(-0.28861 -0.5258)"/><path class="cls-1" d="M114.79392,204.0048c-.00606,52.01954-111.03187,52.0133-111.02615-.00308C3.77365,151.98526,114.79947,151.99149,114.79392,204.0048Z" transform="translate(-0.28861 -0.5258)"/><path class="cls-1" d="M267.0135,166.79443c-.00606,52.01954-111.03187,52.0133-111.02615-.00308C155.99323,114.77489,267.01905,114.78112,267.0135,166.79443Z" transform="translate(-0.28861 -0.5258)"/><path class="cls-1" d="M215.7255,82.77337" transform="translate(-0.28861 -0.5258)"/><path class="cls-1" d="M231.58866,69.63653" transform="translate(-0.28861 -0.5258)"/><path class="cls-1" d="M123.515,65.59443" transform="translate(-0.28861 -0.5258)"/><path class="cls-1" d="M115.79392,67.34179c12.76315-.50526,17.37043,7.58568,17.37043,7.58568-11.70555-2.00591-21.36451,9.45153-18.37043,18.95326l-8.97368-7.0863Z" transform="translate(-0.28861 -0.5258)"/><polygon class="cls-1" points="231.3 53.805 220.928 56.155 228.068 42.079 242.721 53.7 231.3 69.111 231.3 53.805"/><path class="cls-1" d="M231.64987,49.42188c-12.76316-.50526-17.37043,7.58568-17.37043,7.58568,10.31288-2.80858,21.47124,7.91773,18.37043,18.95326l8.97368-7.0863Z" transform="translate(-0.28861 -0.5258)"/><path class="cls-1" d="M231.64907,56.61935C185.73069,66.13469,138.1032,69.52624,93.89388,85.16514c-2.55138.90254-9.70427-2.0583-10.59836-6.96131-3.37137-18.488,2.01286-38.3883,21.50994-42.232l144.95909-30.039a8.96638,8.96638,0,0,1,10.59924,6.96054A36.98982,36.98982,0,0,1,231.64907,56.61935Z" transform="translate(-0.28861 -0.5258)"/><path class="cls-1" d="M99.10193,217.14454A17.43157,17.43157,0,0,1,81.67034,199.713V55.4235c.3814-22.878,34.66676-22.94275,34.86313.00077.41162,48.094,0,96.19222,0,144.28869C116.5335,200.87391,116.41751,207.04933,99.10193,217.14454Z" transform="translate(-0.28861 -0.5258)"/><path class="cls-1" d="M250.75981,185.1966a17.43153,17.43153,0,0,1-17.43157-17.43154c0-37.23157-2.02268-74.51812,0-111.69471.69735-12.81726-3.87455-35.7154,5.10421-44.92089C248.84018.47892,268.72619,8.27583,268.191,23.47628l.00043,144.28878A17.43155,17.43155,0,0,1,250.75981,185.1966Z" transform="translate(-0.28861 -0.5258)"/><path class="cls-1" d="M116.5335,205.74437c-.00606,52.01954-111.03187,52.01331-111.02615-.00307C5.51323,153.72483,116.53905,153.73107,116.5335,205.74437Z" transform="translate(-0.28861 -0.5258)"/><path class="cls-1" d="M268.75307,168.534c-.006,52.01954-111.03186,52.01331-111.02614-.00307C157.73281,116.51446,268.75863,116.5207,268.75307,168.534Z" transform="translate(-0.28861 -0.5258)"/><path class="cls-1" d="M217.46508,84.513" transform="translate(-0.28861 -0.5258)"/><path class="cls-1" d="M233.32824,71.37611" transform="translate(-0.28861 -0.5258)"/><path class="cls-1" d="M125.25455,67.334" transform="translate(-0.28861 -0.5258)"/><path class="cls-1" d="M117.5335,69.08137c12.76315-.50526,17.37043,7.58568,17.37043,7.58568-11.70555-2.00592-21.36451,9.45153-18.37043,18.95326l-8.97368-7.0863Z" transform="translate(-0.28861 -0.5258)"/><polygon class="cls-1" points="233.04 55.545 222.667 57.895 229.808 43.819 244.461 55.44 233.04 70.85 233.04 55.545"/><path class="cls-1" d="M233.38945,51.16146c-12.76316-.50526-17.37044,7.58568-17.37044,7.58568,10.31289-2.80859,21.47124,7.91773,18.37044,18.95326l8.97368-7.08631Z" transform="translate(-0.28861 -0.5258)"/><path class="cls-1" d="M233.38865,58.35893c-45.91838,9.51534-93.54588,12.90688-137.75519,28.54579-2.55138.90254-9.70427-2.05831-10.59836-6.96132-3.37138-18.488,2.01285-38.38829,21.50994-42.232l144.95908-30.039A8.96639,8.96639,0,0,1,262.10337,14.633,36.98982,36.98982,0,0,1,233.38865,58.35893Z" transform="translate(-0.28861 -0.5258)"/><path class="cls-1" d="M100.84151,218.88412a17.43157,17.43157,0,0,1-17.43159-17.43158V57.16308c.3814-22.878,34.66676-22.94275,34.86312.00076.41163,48.094,0,96.19222,0,144.2887C118.27308,202.61349,118.15709,208.7889,100.84151,218.88412Z" transform="translate(-0.28861 -0.5258)"/><path class="cls-1" d="M252.49939,186.93618a17.43155,17.43155,0,0,1-17.43158-17.43155c0-37.23156-2.02267-74.51811,0-111.6947.69735-12.81726-3.87454-35.71541,5.10422-44.92089,10.40773-10.67054,30.29374-2.87363,29.75851,12.32682l.00043,144.28877A17.43155,17.43155,0,0,1,252.49939,186.93618Z" transform="translate(-0.28861 -0.5258)"/><path class="cls-1" d="M118.27307,207.484c-.00605,52.01954-111.03186,52.01331-111.02614-.00307C7.25281,155.46441,118.27863,155.47064,118.27307,207.484Z" transform="translate(-0.28861 -0.5258)"/><path class="cls-1" d="M270.49265,170.27358c-.00605,52.01954-111.03186,52.01331-111.02615-.00307C159.47239,118.254,270.49821,118.26027,270.49265,170.27358Z" transform="translate(-0.28861 -0.5258)"/><path class="cls-1" d="M219.20466,86.25253" transform="translate(-0.28861 -0.5258)"/><path class="cls-1" d="M235.06781,73.11569" transform="translate(-0.28861 -0.5258)"/><path class="cls-1" d="M126.99413,69.07358" transform="translate(-0.28861 -0.5258)"/><path class="cls-1" d="M119.27308,70.821c12.76315-.50527,17.37043,7.58568,17.37043,7.58568C124.938,76.40071,115.279,87.85816,118.27308,97.35989l-8.97368-7.08631Z" transform="translate(-0.28861 -0.5258)"/><polygon class="cls-1" points="234.779 57.284 224.407 59.635 231.548 45.558 246.2 57.179 234.779 72.59 234.779 57.284"/><path class="cls-1" d="M235.129,52.901c-12.76316-.50526-17.37044,7.58568-17.37044,7.58568C228.07148,57.67813,239.22983,68.40445,236.129,79.44l8.97368-7.08631Z" transform="translate(-0.28861 -0.5258)"/><path class="cls-1" d="M235.12822,60.0985C189.20985,69.61385,141.58235,73.00539,97.373,88.6443c-2.55138.90254-9.70427-2.05831-10.59836-6.96132-3.37138-18.488,2.01285-38.38829,21.50994-42.232L253.2437,9.412a8.96639,8.96639,0,0,1,10.59925,6.96054A36.98981,36.98981,0,0,1,235.12822,60.0985Z" transform="translate(-0.28861 -0.5258)"/><path class="cls-1" d="M102.58109,220.6237A17.43157,17.43157,0,0,1,85.1495,203.19212V58.90266c.3814-22.878,34.66676-22.94276,34.86312.00076.41162,48.094,0,96.19222,0,144.2887C120.01265,204.35307,119.89667,210.52848,102.58109,220.6237Z" transform="translate(-0.28861 -0.5258)"/><path class="cls-1" d="M254.239,188.67576a17.43155,17.43155,0,0,1-17.43158-17.43155c0-37.23157-2.02267-74.51812,0-111.6947.69735-12.81726-3.87454-35.71541,5.10422-44.92089,10.40773-10.67054,30.29374-2.87364,29.75851,12.32682l.00043,144.28877A17.43155,17.43155,0,0,1,254.239,188.67576Z" transform="translate(-0.28861 -0.5258)"/><path class="cls-1" d="M120.01265,209.22353c-.006,52.01954-111.03186,52.01331-111.02615-.00308C8.99239,157.204,120.01821,157.21022,120.01265,209.22353Z" transform="translate(-0.28861 -0.5258)"/><path class="cls-1" d="M272.23223,172.01316c-.00605,52.01954-111.03187,52.01331-111.02615-.00308C161.212,119.99362,272.23779,119.99985,272.23223,172.01316Z" transform="translate(-0.28861 -0.5258)"/><path class="cls-1" d="M220.94423,87.99211" transform="translate(-0.28861 -0.5258)"/><path class="cls-1" d="M236.80739,74.85526" transform="translate(-0.28861 -0.5258)"/><path class="cls-1" d="M128.73371,70.81316" transform="translate(-0.28861 -0.5258)"/><path class="cls-1" d="M121.01265,72.56053c12.76316-.50527,17.37044,7.58567,17.37044,7.58567-11.70556-2.00591-21.36451,9.45154-18.37044,18.95327L111.039,92.01316Z" transform="translate(-0.28861 -0.5258)"/><polygon class="cls-1" points="236.519 59.024 226.146 61.374 233.287 47.298 247.94 58.919 236.519 74.329 236.519 59.024"/><path class="cls-1" d="M236.8686,54.64062c-12.76315-.50526-17.37043,7.58568-17.37043,7.58568,10.31289-2.80859,21.47124,7.91773,18.37044,18.95326l8.97368-7.08631Z" transform="translate(-0.28861 -0.5258)"/><path class="cls-1" d="M236.8678,61.83808C190.94943,71.35343,143.32193,74.745,99.11262,90.38387c-2.55138.90255-9.70427-2.0583-10.59836-6.96131-3.37138-18.488,2.01285-38.38829,21.50994-42.232l144.95908-30.039a8.96639,8.96639,0,0,1,10.59925,6.96054A36.98982,36.98982,0,0,1,236.8678,61.83808Z" transform="translate(-0.28861 -0.5258)"/><path class="cls-1" d="M104.32067,222.36328a17.43159,17.43159,0,0,1-17.4316-17.43158V60.64224c.38141-22.878,34.66677-22.94276,34.86313.00076.41162,48.094,0,96.19222,0,144.2887C121.75223,206.09265,121.63625,212.26806,104.32067,222.36328Z" transform="translate(-0.28861 -0.5258)"/><path class="cls-1" d="M255.97855,190.41534A17.43154,17.43154,0,0,1,238.547,172.98379c0-37.23157-2.02267-74.51812,0-111.6947.69735-12.81727-3.87454-35.71541,5.10422-44.92089C254.05892,5.69766,273.94492,13.49456,273.4097,28.695l.00043,144.28877A17.43155,17.43155,0,0,1,255.97855,190.41534Z" transform="translate(-0.28861 -0.5258)"/><path class="cls-1" d="M121.75223,210.96311c-.00605,52.01954-111.03187,52.01331-111.02615-.00308C10.732,158.94357,121.75779,158.9498,121.75223,210.96311Z" transform="translate(-0.28861 -0.5258)"/><path class="cls-1" d="M273.97181,173.75274c-.00605,52.01954-111.03187,52.0133-111.02615-.00308C162.95155,121.7332,273.97736,121.73943,273.97181,173.75274Z" transform="translate(-0.28861 -0.5258)"/><path class="cls-1" d="M222.68381,89.73168" transform="translate(-0.28861 -0.5258)"/><path class="cls-1" d="M238.547,76.59484" transform="translate(-0.28861 -0.5258)"/><path class="cls-1" d="M130.47329,72.55274" transform="translate(-0.28861 -0.5258)"/><path class="cls-1" d="M122.75223,74.3001c12.76316-.50526,17.37044,7.58568,17.37044,7.58568-11.70556-2.00591-21.36451,9.45153-18.37044,18.95326l-8.97368-7.0863Z" transform="translate(-0.28861 -0.5258)"/><polygon class="cls-1" points="238.258 60.763 227.886 63.114 235.027 49.037 249.679 60.659 238.258 76.069 238.258 60.763"/><path class="cls-1" d="M238.60818,56.38019c-12.76315-.50526-17.37043,7.58569-17.37043,7.58569,10.31289-2.80859,21.47124,7.91772,18.37044,18.95325l8.97368-7.0863Z" transform="translate(-0.28861 -0.5258)"/><path class="cls-1" d="M238.60738,63.57766q-68.87755,14.273-137.75519,28.54579c-2.40584,1.23936-10.4731-1.979-10.59835-6.96131-6.18939-17.74443,2.01285-38.3883,21.50993-42.232l144.95909-30.039a8.96637,8.96637,0,0,1,10.59924,6.96054A36.9898,36.9898,0,0,1,238.60738,63.57766Z" transform="translate(-0.28861 -0.5258)"/><path class="cls-1" d="M106.06025,224.10285a17.43158,17.43158,0,0,1-17.4316-17.43158V62.38181c.3814-22.878,34.47043-22.94023,34.86313.00077q0,72.14358,0,144.28869C123.49181,207.83222,123.37583,214.00764,106.06025,224.10285Z" transform="translate(-0.28861 -0.5258)"/><path class="cls-1" d="M257.71813,192.15492a17.43156,17.43156,0,0,1-17.43158-17.43155V63.02866c1.39264-12.76044-4.07247-35.9127,5.10422-44.92089,10.17338-10.89419,30.29373-2.87363,29.75851,12.32683l.00043,144.28877A17.43156,17.43156,0,0,1,257.71813,192.15492Z" transform="translate(-0.28861 -0.5258)"/><path class="cls-1" d="M123.49181,212.70269c-.00605,52.01953-111.03187,52.0133-111.02615-.00308C12.47155,160.68315,123.49736,160.68938,123.49181,212.70269Z" transform="translate(-0.28861 -0.5258)"/><path class="cls-1" d="M275.71139,175.49231c-.00605,52.01954-111.03187,52.01331-111.02615-.00307C164.69113,123.47278,275.71694,123.479,275.71139,175.49231Z" transform="translate(-0.28861 -0.5258)"/><path class="cls-1" d="M224.42339,91.47126" transform="translate(-0.28861 -0.5258)"/><path class="cls-1" d="M240.28655,78.33442" transform="translate(-0.28861 -0.5258)"/><path class="cls-1" d="M132.21286,74.29231" transform="translate(-0.28861 -0.5258)"/><path class="cls-1" d="M124.49181,76.03968c12.76316-.50526,17.37044,7.58568,17.37044,7.58568-11.70556-2.00591-21.36451,9.45153-18.37044,18.95326l-8.97368-7.0863Z" transform="translate(-0.28861 -0.5258)"/><polygon class="cls-1" points="239.998 62.503 229.626 64.853 236.766 50.777 251.419 62.398 239.998 77.809 239.998 62.503"/><path class="cls-1" d="M240.34776,58.11977c-12.76315-.50526-17.37043,7.58568-17.37043,7.58568,10.31289-2.80858,21.47124,7.91773,18.37044,18.95326l8.97368-7.0863Z" transform="translate(-0.28861 -0.5258)"/><path class="cls-2" d="M226.43033,51.40061Q157.55278,65.67363,88.67514,79.9464c-2.40585,1.23936-10.47311-1.979-10.59835-6.96131-6.1894-17.74443,2.01285-38.38829,21.50993-42.232L244.54581.71412a8.96638,8.96638,0,0,1,10.59924,6.96054A36.98981,36.98981,0,0,1,226.43033,51.40061Z" transform="translate(-0.28861 -0.5258)"/><path class="cls-2" d="M93.8832,211.9258a17.43157,17.43157,0,0,1-17.4316-17.43158V50.20477c.3814-22.878,34.47043-22.94024,34.86313.00076q0,72.14358,0,144.28869C111.31476,195.65517,111.19878,201.83059,93.8832,211.9258Z" transform="translate(-0.28861 -0.5258)"/><path class="cls-2" d="M245.54108,179.97787a17.43155,17.43155,0,0,1-17.43158-17.43155V50.85162c1.39264-12.76045-4.07247-35.91271,5.10422-44.92089,10.17338-10.8942,30.29373-2.87364,29.7585,12.32682l.00044,144.28877A17.43155,17.43155,0,0,1,245.54108,179.97787Z" transform="translate(-0.28861 -0.5258)"/><path class="cls-2" d="M111.31476,200.52564C111.30871,252.54518.28289,252.53894.28861,200.52256.2945,148.5061,111.32031,148.51233,111.31476,200.52564Z" transform="translate(-0.28861 -0.5258)"/><path class="cls-2" d="M263.53434,163.31527c-.006,52.01954-111.03187,52.0133-111.02615-.00308C152.51407,111.29573,263.53989,111.302,263.53434,163.31527Z" transform="translate(-0.28861 -0.5258)"/><path class="cls-2" d="M212.24634,79.29421" transform="translate(-0.28861 -0.5258)"/><path class="cls-2" d="M228.1095,66.15737" transform="translate(-0.28861 -0.5258)"/><path class="cls-2" d="M120.03581,62.11527" transform="translate(-0.28861 -0.5258)"/><path class="cls-2" d="M112.31476,63.86263c12.76315-.50526,17.37043,7.58568,17.37043,7.58568-11.70555-2.00591-21.3645,9.45153-18.37043,18.95326l-8.97368-7.0863Z" transform="translate(-0.28861 -0.5258)"/><polygon class="cls-2" points="227.821 50.326 217.449 52.676 224.589 38.6 239.242 50.221 227.821 65.632 227.821 50.326"/><path class="cls-2" d="M228.17071,45.94272c-12.76315-.50526-17.37043,7.58568-17.37043,7.58568,10.31288-2.80858,21.47124,7.91773,18.37044,18.95326l8.97367-7.0863Z" transform="translate(-0.28861 -0.5258)"/></svg>