<svg id="Calque_1" data-name="Calque 1" xmlns="http://www.w3.org/2000/svg" viewBox="0 0 197.8211 197.8211"><defs><style>.cls-1,.cls-3{fill:#9fd3c7;}.cls-1,.cls-2{stroke:#55a8ba;stroke-miterlimit:10;stroke-width:11px;}.cls-2{fill:none;}.cls-4{fill:#55a8ba;}</style></defs><circle class="cls-1" cx="98.9105" cy="98.9105" r="93.4105"/><circle class="cls-2" cx="98.9105" cy="98.9105" r="46.4506"/><path class="cls-3" d="M173.6667,122.716c-22.7155,5.8171-29.1244,6.48-29.4667,5.4521-.1364-.41.6979-1.0624,1.5053-3.4944a6.6515,6.6515,0,0,0,.6094-3.1358c-.4171-2.432-4.1128-4.5762-6.9678-4.0371-2.94.5552-4.3388,3.817-5.2959,5.2152-2.7455,4.0109-11.3026,6.49-36.6189,0v-45.37h76.2346Z" transform="translate(-1.0895 -0.9537)"/><rect class="cls-4" x="128.621" y="67.5933" width="36.2217" height="13.3271" rx="6.6636" transform="translate(51.1384 207.889) rotate(-81.7667)"/><rect class="cls-4" x="115.4774" y="75.7322" width="36.2217" height="13.3271" rx="6.6636" transform="translate(31.3984 -38.6146) rotate(18.2332)"/><path class="cls-3" d="M123.7579,124.1368" transform="translate(-1.0895 -0.9537)"/></svg>